<svg width="608" height="598" xmlns="http://www.w3.org/2000/svg"><path fill="none" d="M-1-1h610v600H-1z"/><g><g stroke="null"><path fill="#177DDC" d="M241.318 572.26s101.84 15.489 188.457-56.235 118.103-187.531 146.151-280.821-9.032-175.785-87.53-201.701S369.607 75.365 268.452 97.4 137.79 110.377 62.12 182.736-8.398 391.16 73.247 477.143s168.071 95.117 168.071 95.117z" stroke-width="1.26856"/><path fill="#fff" opacity=".7" d="M241.318 572.26s101.84 15.489 188.457-56.235 118.103-187.531 146.151-280.821-9.032-175.785-87.53-201.701S369.607 75.365 268.452 97.4 137.79 110.377 62.12 182.736-8.398 391.16 73.247 477.143s168.071 95.117 168.071 95.117z" stroke-width="1.26856"/></g><g stroke="null"><path fill="#263238" d="M14.233 172.715h511.065v34.644H14.233z" stroke-width="1.26856"/><path stroke="#263238" fill="none" stroke-miterlimit="10" stroke-width="2.53712" d="M51.757.85v181.848M124.433.85v181.848M197.096.85v181.848M269.772.85v181.848M342.435.85v181.848M415.11.85v181.848M487.774.85v181.848M15.425 47.482h508.68M15.425 116.758h508.68"/><path fill="#263238" d="M472.665 0h129.406v207.346H472.665z" stroke-width="1.26856"/></g><g stroke="null"><path stroke="#177DDC" fill="none" stroke-linecap="round" stroke-linejoin="round" d="M51.605 556.428V519.12" stroke-width="1.26856"/><path stroke="#263238" fill="#263238" stroke-linecap="round" stroke-linejoin="round" d="M43.994 556.314h15.045l-3.755 41.14H47.76l-3.767-41.14z" stroke-width="1.26856"/><path fill="#177DDC" d="M51.313 553.067a15.971 15.971 0 00-4.478-4.212 16.986 16.986 0 00-6.736-1.395s2.246 8.131 11.214 5.607zM51.605 553.067a15.971 15.971 0 014.478-4.212 16.986 16.986 0 016.736-1.395s-2.245 8.131-11.214 5.607zM51.313 542.969a15.78 15.78 0 00-4.478-4.212 16.86 16.86 0 00-6.736-1.408s2.246 8.144 11.214 5.62zM51.605 542.969a15.78 15.78 0 014.478-4.212 16.86 16.86 0 016.736-1.408s-2.245 8.144-11.214 5.62zM51.313 532.858a15.819 15.819 0 00-4.478-4.198 16.86 16.86 0 00-6.736-1.409s2.246 8.132 11.214 5.607zM51.605 532.858a15.819 15.819 0 014.478-4.198 16.86 16.86 0 016.736-1.409s-2.245 8.132-11.214 5.607zM51.313 522.76a15.971 15.971 0 00-4.478-4.21 16.986 16.986 0 00-6.736-1.396s2.246 8.131 11.214 5.607zM51.605 522.76a15.971 15.971 0 014.478-4.21 16.986 16.986 0 016.736-1.396s-2.245 8.131-11.214 5.607zM51.605 519.12a12.749 12.749 0 01-2.36-5.912 16.935 16.935 0 011.776-6.647s6.876 5.683.584 12.559z" stroke-width="1.26856"/><path stroke="#177DDC" fill="none" stroke-linecap="round" stroke-linejoin="round" d="M553.409 556.428V519.12" stroke-width="1.26856"/><path stroke="#263238" fill="#263238" stroke-linecap="round" stroke-linejoin="round" d="M545.81 556.314h15.046l-3.768 41.14h-7.523l-3.755-41.14z" stroke-width="1.26856"/><path fill="#177DDC" d="M553.092 553.067a16.11 16.11 0 00-4.49-4.212 16.948 16.948 0 00-6.724-1.395s2.334 8.131 11.214 5.607zM553.41 553.067a16.11 16.11 0 014.49-4.212 16.986 16.986 0 016.736-1.395s-2.245 8.131-11.227 5.607zM553.092 542.969a15.92 15.92 0 00-4.49-4.212 16.808 16.808 0 00-6.724-1.408s2.334 8.144 11.214 5.62zM553.41 542.969a15.92 15.92 0 014.49-4.212 16.86 16.86 0 016.736-1.408s-2.245 8.144-11.227 5.62zM553.092 532.858a15.958 15.958 0 00-4.49-4.198 16.808 16.808 0 00-6.724-1.409s2.334 8.132 11.214 5.607zM553.41 532.858a15.958 15.958 0 014.49-4.198 16.86 16.86 0 016.736-1.409s-2.245 8.132-11.227 5.607zM553.092 522.76a16.11 16.11 0 00-4.49-4.21 16.948 16.948 0 00-6.724-1.396s2.334 8.131 11.214 5.607zM553.41 522.76a16.11 16.11 0 014.49-4.21 16.986 16.986 0 016.736-1.396s-2.245 8.131-11.227 5.607zM553.41 519.12a12.749 12.749 0 01-2.36-5.912 16.86 16.86 0 011.788-6.647s6.876 5.683.571 12.559z" stroke-width="1.26856"/><path stroke="#177DDC" fill="none" stroke-linecap="round" stroke-linejoin="round" d="M489.46 163.835v-37.321" stroke-width="1.26856"/><path stroke="#263238" fill="#fff" stroke-linecap="round" stroke-linejoin="round" d="M481.862 163.708h15.045l-3.767 41.139h-7.523l-3.755-41.14z" stroke-width="1.26856"/><path fill="#177DDC" d="M489.182 160.447a16.11 16.11 0 00-4.49-4.211 16.948 16.948 0 00-6.724-1.396s2.245 8.145 11.214 5.607zM489.461 160.447a16.11 16.11 0 014.49-4.211 16.986 16.986 0 016.737-1.396s-2.246 8.145-11.227 5.607zM489.182 150.362a16.11 16.11 0 00-4.49-4.211 16.948 16.948 0 00-6.724-1.396s2.245 8.081 11.214 5.607zM489.461 150.362a16.11 16.11 0 014.49-4.211 16.986 16.986 0 016.737-1.396s-2.246 8.081-11.227 5.607zM489.182 140.265a16.11 16.11 0 00-4.49-4.212 16.808 16.808 0 00-6.724-1.408s2.245 8.144 11.214 5.62zM489.461 140.265a16.11 16.11 0 014.49-4.212 16.86 16.86 0 016.737-1.408s-2.246 8.144-11.227 5.62zM489.182 130.167a15.92 15.92 0 00-4.49-4.212 16.808 16.808 0 00-6.724-1.408s2.245 8.144 11.214 5.62zM489.461 130.167a15.92 15.92 0 014.49-4.212 16.86 16.86 0 016.737-1.408s-2.246 8.144-11.227 5.62zM489.461 126.513a12.749 12.749 0 01-2.36-5.911 17.087 17.087 0 011.79-6.635s6.875 5.67.57 12.546z" stroke-width="1.26856"/></g><g stroke="#263238" stroke-linecap="round" stroke-linejoin="round"><path fill="#177DDC" d="M485.998 7.916h44.272v59.673h-44.272z" stroke-width="1.26856"/><path fill="#fff" d="M492.416 16.58h31.423v42.357h-31.423z" stroke-width="1.26856"/><path fill="#177DDC" d="M547.523 31.181h36.027v48.56h-36.027z" stroke-width="1.26856"/><path fill="#fff" d="M552.75 38.222h25.56v34.454h-25.56z" stroke-width="1.26856"/><path fill="#177DDC" d="M514.82 84.69h30.8v41.506h-30.8z" stroke-width="1.26856"/><path fill="#fff" d="M519.297 90.715h21.858v29.456h-21.858z" stroke-width="1.26856"/></g><g stroke="null" transform="matrix(1.26856 0 0 1.26856 -15.52 -13.88)"><path stroke="#263238" fill="#fff" stroke-linecap="round" stroke-linejoin="round" d="M216.984 97.18h-31.57a1.3 1.3 0 00-1.29 1.3h0a1.29 1.29 0 001.29 1.29h32.82v-1.29a1.29 1.29 0 00-1.25-1.3z"/><rect stroke="#263238" fill="#263238" stroke-linecap="round" stroke-linejoin="round" rx="1.47" height="29.79" width="43.13" y="64.791" x="161.974"/><rect stroke="#263238" fill="#474747" stroke-linecap="round" stroke-linejoin="round" rx="1.47" height="21.85" width="30.64" y="72.741" x="167.364"/><rect stroke="#263238" fill="#fff" stroke-linecap="round" stroke-linejoin="round" rx="1.47" height="15.04" width="5.96" y="86.361" x="179.564"/><path stroke="#263238" fill="#b5b5b5" stroke-linecap="round" stroke-linejoin="round" d="M245.964 101.97l11.27-42.19a6.24 6.24 0 016.75-4.58l16.66.63a6.23 6.23 0 015.45 6.93l-4.86 39.43-35.27-.22z"/><path stroke="#263238" fill="#177DDC" stroke-linecap="round" stroke-linejoin="round" d="M251.424 72.06h-10.65l-17.54 8.07.85 7.39 14.44-2.58.34 17.87h22.37l3.95-11 5 10a.55.55 0 00.88.15l17.17-17.36-2.41-2.24-12.71 6.7-6.19-14.26-15.5-2.74z"/><path stroke="#263238" fill="#177DDC" stroke-linecap="round" stroke-linejoin="round" d="M246.954 72.06s-4.12 9.1-4.12 14.94 3.61 13.06 3.61 13.06l6.18 1.2a31.16 31.16 0 005.84-13.57 73.12 73.12 0 00.52-14.09s-4.3-1.72-12.03-1.54z"/><path stroke="#263238" fill="#fff" stroke-linecap="round" stroke-linejoin="round" d="M249.364 73.42a83.78 83.78 0 00-2.23 14.1c-.35 6.7-.69 15.29-.69 15.29h5.5s2.74-19.93 3.78-24.57-1.04-7.73-6.36-4.82z"/><path stroke="#263238" fill="#263238" stroke-linecap="round" stroke-linejoin="round" d="M246.234 55.34s-3.73-.7-4.15-3.77 4.12-6.63 10-7.95 12.37 4.21 13.23 9.29 2.77 11.41 1.57 14-6.8 3.53-12.76 4.35-9.15-2.22-9.26-4.29 1.37-11.63 1.37-11.63z"/><path stroke="#263238" fill="#fff" stroke-linecap="round" stroke-linejoin="round" d="M251.424 71.2s-1.72 0-2.23.86-4 7-4 7l6.35-.86 7.05 2.58s.17-6.7-.52-8.25-6.65-1.33-6.65-1.33z"/><path stroke="#263238" fill="#fff" stroke-linecap="round" stroke-linejoin="round" d="M250.914 67.76s-.35 7.73-.35 9.45a2 2 0 003.78.86c1.2-1.89 2.23-10.31 2.23-10.31h-5.66z"/><path stroke="#263238" fill="#263238" stroke-linecap="round" stroke-linejoin="round" d="M236.304 54.36l5.5 12.54 5.33-2.06-5.33-11.85-5.5 1.37z"/><path stroke="#263238" fill="#fff" stroke-linecap="round" stroke-linejoin="round" d="M251.364 49.96c.41.4-2.69 3.71-5.09 4.4-1.16.33 0 5.67-.35 7.9-.37 2.43 4.69 7.57 6.73 7.29 4.44-.61 6.14-2 6.73-4a22.58 22.58 0 00.46-2.73s2.23 1.54 2.58-.69-.86-2.92-.86-2.92-9.8-1.79-10.2-9.25zM285.784 82.36l2.23-5.84 3.85-1.67.11-.04v1.54l-2.24 1.38h3.95l2.24-2.41.86.52-2.07 5.49-6.52 3.27-2.41-2.24zM238.544 67.25l-2.58-7.22 3.78-4.12 1 .68s-.86 3.61-.86 4.13a56.4 56.4 0 002.58 5.49l-6 7.39-2.57-2.75 4.65-3.6z"/><path stroke="#263238" fill="#177DDC" stroke-linecap="round" stroke-linejoin="round" d="M233.904 70.85l-12.81 9a4.19 4.19 0 00-1.78 3.74l.07 1a4.17 4.17 0 003.8 3.84h0a4.19 4.19 0 003.85-1.86l9.44-12.89-2.57-2.83z"/><path stroke="#263238" fill="#fff" stroke-linecap="round" stroke-linejoin="round" d="M157.304 99.63h173.3v70h0-173.3a1.47 1.47 0 01-1.47-1.47v-67a1.47 1.47 0 011.47-1.53z"/><path stroke="#263238" fill="#263238" stroke-linecap="round" stroke-linejoin="round" d="M274.754 92.54h17.64l-2.51 7.22h-17.64l2.51-7.22z"/><path stroke="#263238" fill="#fff" stroke-linecap="round" stroke-linejoin="round" d="M305.414 92.54h-30.2l2.51 7.22h30.2l-2.51-7.22z"/><path fill="#263238" d="M284.134 95.03l.21.54c.27.67.09 1-.56 1h-.31l.63 1.56h-.66l-1.65-4.15h1a1.44 1.44 0 011.34 1.05zm-1.45-.43l.56 1.41h.31c.2 0 .28-.1.16-.4l-.25-.62c-.12-.3-.27-.39-.48-.39h-.3zM287.054 98.16a1.86 1.86 0 01-.27-.51l-.26-.65c-.15-.39-.34-.53-.64-.53h-.22l.67 1.69h-.65l-1.66-4.15h1a1.34 1.34 0 011.35 1l.13.33q.25.63-.09.84a1.38 1.38 0 01.78.88l.26.64a1.65 1.65 0 00.27.51l-.67-.05zm-2.14-3.56l.51 1.27h.26c.24 0 .35-.1.21-.43l-.16-.41c-.12-.3-.27-.43-.5-.43h-.32zM287.764 95.76h.89l.24.59h-.89l.48 1.21h1.13l.24.6h-1.78l-1.66-4.15h1.82l.23.59h-1.12l.42 1.16zM289.454 93.96a1.48 1.48 0 011.38 1v.13h-.6l-.07-.17c-.11-.3-.28-.41-.49-.41s-.28.11-.16.41c.34.86 1.68 1 2.16 2.2.26.67.08 1.05-.56 1.05a1.47 1.47 0 01-1.39-1.05l-.1-.25h.61l.11.29c.12.3.3.41.5.41s.3-.11.18-.41c-.34-.85-1.68-1-2.15-2.2-.23-.62-.05-1 .58-1zM290.814 94.01h.65l1.66 4.15h-.65l-1.66-4.15zM291.944 94.01h1a1.43 1.43 0 011.38 1l.84 2.1c.27.67.09 1-.56 1h-1l-1.66-4.1zm.89.59l1.18 3h.37c.21 0 .29-.1.17-.4l-.86-2.16c-.12-.29-.29-.4-.5-.4l-.36-.04zM295.714 95.76h.89l.24.59h-.89l.48 1.21h1.13l.24.6h-1.78l-1.66-4.15h1.78l.23.59h-1.14l.48 1.16zM297.584 95.15l1.2 3h-.55l-1.65-4.15h.81l1.67 2.48-1-2.48h.58l1.59 4.16h-.67l-1.98-3.01zM298.884 94.01h2l.24.59h-.68l1.42 3.56h-.63l-1.43-3.56h-.68l-.24-.59zM154.374 99.63h179.16v3.51h0-179.16a1.47 1.47 0 01-1.47-1.47v-.57a1.47 1.47 0 011.47-1.47z"/></g><g stroke="null" transform="matrix(1.26856 0 0 1.26856 -15.52 -13.88)"><path stroke="#263238" fill="#263238" stroke-linecap="round" stroke-linejoin="round" d="M316.424 274.05l26.65 6.5a2 2 0 011.16 2.87l-22.09 41.09 9.34 7.83-9.93-2.11-7.83-3.19 1.16-4.93 14.11-34.06a1.22 1.22 0 00-1.14-1.65h-29.62s-6-5.59-.2-13.18l18.39.83z"/><path fill="#263238" d="M307.584 324.71v-26.89h-3.79v-3.6h9.78v3.6h-3.79v26.53l18.37 4.78v1.4h-2l-16.37-3.08v3.08h-2.2v-2.82l-14.98 2.82h-1.99v-1.4l16.97-4.42z"/><path stroke="#263238" fill="none" stroke-linecap="round" stroke-linejoin="round" stroke-width="2" d="M318.164 294.42h-29.15l-2.78-4.64a12.94 12.94 0 01-.93-11.55l1.76-4.38"/><path stroke="#263238" fill="#5c5c5c" stroke-linecap="round" stroke-linejoin="round" d="M319.164 247.09l6 7.69 15.57 1.4s6.48-3 7.88-3 5.25 6.13 5.25 6.13h-13.86l-16.1 2.63-7.35-4.91 2.61-9.94z"/><path stroke="#263238" fill="#177DDC" stroke-linecap="round" stroke-linejoin="round" d="M318.764 243.5l3.72 23c.3 1.85.44 7.21-1.7 8.23a3 3 0 01-1.29.2c-2.95 0-5.8-.85-8.7-.85h-10.93a3.49 3.49 0 01-3.19-2.07l-.2-.45a3.5 3.5 0 01-.21-2.21c1.29-5.51 6.89-26.72 8.13-29 1.39-2.59 6.19-4.39 6.19-4.39l8.18 7.54z"/><path stroke="#263238" fill="#fff" stroke-linecap="round" stroke-linejoin="round" d="M322.934 235.31l-3.19 1.42-2.31 5-6.39-6.21 1.77-4.08s-2.31-3.38-1.77-6.4 6.21-6.21 9.23-3.37 2.66 13.64 2.66 13.64z"/><path stroke="#263238" fill="#263238" stroke-linecap="round" stroke-linejoin="round" d="M324.124 221.42s2.11-.47 1.88-2.34-1.88.23-1.88-1.87 1.88-2.81.71-4-4.92-1.87-5.85-.23-.71 2.57-1.41 2.57-2.57-1.64-4 .47-.93 2.81-.93 2.81-5.38 2.1-5.38 5.61 5.53 6.92 5.53 6.92 3.59.33 5.23-1.3 2.11-4.45 2.57-5.62 3.53-3.02 3.53-3.02z"/><path stroke="#263238" fill="#fff" stroke-linecap="round" stroke-linejoin="round" d="M323.294 219.87l1.59 4.79v1.24l2.28 2.28v.06l-1.75 2.1.17 4.62-4 .29a4.43 4.43 0 01-4.45-2.83l-.95-2.44a2.56 2.56 0 01-1.59-2.49c0-2-.18-2.66.88-2.66a10.08 10.08 0 012.31.35l1.07-.53-.18-1.78 1.6-1.24.18-1.77 2.84.01z"/><path stroke="#263238" fill="#177DDC" stroke-linecap="round" stroke-linejoin="round" d="M311.574 232.92l9.39 9.18-1.8 4.99-9.98-11.18 2.39-2.99z"/><rect stroke="#263238" fill="#b5b5b5" stroke-linecap="round" stroke-linejoin="round" transform="rotate(180 623.924 580.84)" rx="2.4" height="7.59" width="35.35" y="868.251" x="919.094"/><rect stroke="#263238" fill="#b5b5b5" stroke-linecap="round" stroke-linejoin="round" transform="rotate(172.61 613.494 501.77)" rx="1.6" height="25.36" width="6.39" y="760.631" x="901.674"/><path stroke="#263238" fill="#177DDC" stroke-linecap="round" stroke-linejoin="round" d="M311.574 240.9l9.16 16.28 17.2-.7s7.39-1.6 8.59-1.8 4.59 3.8 4.59 3.8h-12l-21.79 6.49-13.55-16.48"/><path stroke="#263238" fill="#fff" stroke-linecap="round" stroke-linejoin="round" d="M337.964 258.75l-.44-2.28h.41s7.39-1.6 8.59-1.8 4.59 3.8 4.59 3.8h-12l-1.15.28z"/><path stroke="#263238" fill="#5c5c5c" stroke-linecap="round" stroke-linejoin="round" d="M432.784 285.42s18.51 34.25 19.09 35.62a14.56 14.56 0 01.84 4.88s-.21.42-1.06.42-9.54 3.82-11.87 3.82h-4.24l3.18-2.76 3.6-4s2 .46 2-3.36-22.56-34.17-23.41-36.5 3.82-3.81 5.3-3.6 5.73.85 5.73.85l.84 4.63z"/><path stroke="#263238" fill="#fff" stroke-linecap="round" stroke-linejoin="round" d="M449.114 272.16l-31.74 9.08a2 2 0 00-1.18 2.91l25.04 38.27-10.14 9.09 7 .87 5.51-2 3.11-2.58-1.16-4.93-14.12-34.1a1.21 1.21 0 011.14-1.64h33.5s7.49-7.17 1.7-14.76l-18.66-.21zM437.514 235.31l3.19 1.42 2.31 5 6.39-6.21-1.77-4.1s2.3-3.38 1.77-6.4-6.21-6.21-9.23-3.37-2.66 13.66-2.66 13.66z"/><path stroke="#263238" fill="#fff" stroke-linecap="round" stroke-linejoin="round" d="M437.154 219.87l-1.59 4.79v1.24l-2.28 2.28v.06l1.75 2.1-.17 4.62 4 .29a4.44 4.44 0 004.46-2.82l.94-2.44a2.56 2.56 0 001.6-2.49c0-2 .18-2.66-.89-2.66a10.06 10.06 0 00-2.3.35l-1.07-.53.18-1.78-1.6-1.24-.18-1.77h-2.85z"/><path stroke="#263238" fill="#5c5c5c" stroke-linecap="round" stroke-linejoin="round" d="M442.964 246.42l-7.7 9.8-22.23-.53s-6.65-2.8-7.7-2.27-3.33 4.37-3.33 4.37l5.26-.87a13.78 13.78 0 003.67 1.05 8.81 8.81 0 002.63-.53l26.95 5.43 7.88-7.88-5.43-8.57z"/><path stroke="#263238" fill="#177DDC" stroke-linecap="round" stroke-linejoin="round" d="M441.904 244.12s-1.27 12.29 0 14 6.57 3.6 6.79 4.24 0 8.48.42 9.12a11.14 11.14 0 004 2.33h13.35s2.13-1.7 2.13-3.18-4.61-7-4.61-7-2.18-16.74-4.3-21-10.86-6.87-11.58-7.14-6.2 8.63-6.2 8.63z"/><path stroke="#263238" fill="#177DDC" stroke-linecap="round" stroke-linejoin="round" d="M448.864 232.92l-9.38 9.18 1.8 4.99 9.98-11.18-2.4-2.99z"/><path stroke="#263238" fill="#177DDC" stroke-linecap="round" stroke-linejoin="round" d="M448.864 240.9l-9.15 16.28-17.21-.7s-7.38-1.6-8.58-1.8-4.6 3.8-4.6 3.8h12l21.79 6.49 13.55-16.48"/><path stroke="#263238" fill="#fff" stroke-linecap="round" stroke-linejoin="round" d="M422.484 258.75l.44-2.28h-.42s-7.38-1.6-8.58-1.8-4.6 3.8-4.6 3.8h12l1.16.28z"/><path stroke="#263238" fill="#263238" stroke-linecap="round" stroke-linejoin="round" d="M434.234 219.74s10.39 12.17 14.42 12.29c7.2.21 5.72-10.81 3.39-13.57-1.44-1.75-16.5-7.84-17.81 1.28z"/><path stroke="#263238" fill="#263238" stroke-linecap="round" stroke-linejoin="round" d="M445.084 224.42s1.06 5.09-.63 8.69-4.46 3.18-3.82 3.82 4.66 4.24 8.48 2.33 5.12-9.56 5.12-12.74"/><path fill="#263238" d="M467.774 271.68l-18.66-.21-29 8.3c2.32 1.26 7.64 4.81 11.39 7.36.19-.4 5.48.48 6 .48l28.57-1.19s7.49-7.15 1.7-14.74zM464.104 324.71v-26.89h3.79v-3.6h-9.78v3.6h3.79v26.53l-18.37 4.78v1.4h1.99l16.38-3.08v3.08h2.2v-2.82l14.97 2.82h2v-1.4l-16.97-4.42z"/><path stroke="#263238" fill="none" stroke-linecap="round" stroke-linejoin="round" stroke-width="2" d="M453.514 294.42h29.16l2.82-4.64a12.91 12.91 0 00.94-11.55l-1.77-4.38"/><rect stroke="#263238" fill="#b5b5b5" stroke-linecap="round" stroke-linejoin="round" rx="2.4" height="7.59" width="35.35" y="285.831" x="442.934"/><rect stroke="#263238" fill="#b5b5b5" stroke-linecap="round" stroke-linejoin="round" transform="rotate(8.1 481.5 262.5)" rx="1.6" height="25.36" width="6.39" y="257.522" x="478.681"/><path stroke="#263238" fill="#fff" stroke-linecap="round" stroke-linejoin="round" stroke-width=".75" d="M372.794 259.75l-3.21-17.24h-1.64l3.21 17.24h-6.34v1.18h8.2l-.22-1.18zM363.364 253.12l1.79.34 3.04-23.69-1.79-.35-3.04 23.7z"/><path stroke="#263238" fill="#fff" stroke-linecap="round" stroke-linejoin="round" stroke-width=".75" d="M367.944 231.01l1.64 2.73-2.55 18.61-1.88 1.11 2.79-22.45zM345.474 259.951h15.24v.88h-15.24zM392.324 259.75l3.22-17.24h1.64l-3.21 17.24h6.34v1.18h-8.2l.21-1.18zM401.764 253.12l-1.79.34-3.04-23.69 1.79-.35 3.04 23.7z"/><path stroke="#263238" fill="#fff" stroke-linecap="round" stroke-linejoin="round" stroke-width=".75" d="M397.184 231.01l-1.64 2.73 2.55 18.61 1.88 1.11-2.79-22.45zM419.654 260.83h-15.24v-.88h15.24z"/><path stroke="#263238" fill="#fff" stroke-linecap="round" stroke-linejoin="round" d="M338.794 264.591h96.3v67.78h-96.3z"/><path stroke="#263238" fill="#fff" stroke-linecap="round" stroke-linejoin="round" d="M333.864 286.061h46.64v46.32h-46.64zM394.624 286.061h46.64v46.32h-46.64zM336.944 260.471h100v4.44h-100z"/></g><g stroke="null" transform="matrix(1.26856 0 0 1.26856 -15.52 -13.88)"><rect stroke="#263238" fill="#b5b5b5" stroke-linecap="round" stroke-linejoin="round" rx="4" height="25.22" width="27.68" y="257.241" x="151.014"/><path stroke="#263238" fill="#263238" stroke-linecap="round" stroke-linejoin="round" d="M167.534 221.01s4-2.91 7.16.45.89 5.36.67 8.27 5.37 4.47 4.25 8.49-5.37 4.48-5.14 6.26 2.23 2-.23 4-8.27 1.79-11.18-2 1.12-6.93 2-10.51-2-7.6-2.24-10.51 4.71-4.45 4.71-4.45z"/><path stroke="#263238" fill="#fff" stroke-linecap="round" stroke-linejoin="round" d="M176.704 269.17l-2.58-23.61s-12.17-4.43-15.75-4.43c-.9 0-11.93 4.43-11.93 4.43l-4.92 14.35.18.24a4.88 4.88 0 007 .77l.5-.41 2.95 8.84 16.74-.32 1.93.14h5.88zM148.904 260.011l.53-9.49M169.814 267.391l-.71-15.97"/><path stroke="#263238" fill="#fff" stroke-linecap="round" stroke-linejoin="round" d="M159.494 237.33s-3.58.89-4.48 2.46-2.68 9.84-2.68 9.84l7.83-3.36 6.26 5.15s1.56-7.16.44-10.07-5.14-4.93-7.37-4.02z"/><path stroke="#263238" fill="#fff" stroke-linecap="round" stroke-linejoin="round" d="M158.594 235.54s-.89 14.31.67 13.42 5.82-13 5.82-13l-6.49-.42zM154.394 227.07s-2.15-2-2.51.95 3 3.59 3 3.59l-.49-4.54zM167.974 227.07s2.15-2 2.51.95-3 3.59-3 3.59l.49-4.54z"/><path stroke="#263238" fill="#fff" stroke-linecap="round" stroke-linejoin="round" d="M168.614 226.68c0 5-3.26 11.32-7.28 11.32s-7.28-6.3-7.28-11.32 3.26-9.11 7.28-9.11 7.28 4.08 7.28 9.11z"/><path stroke="#263238" fill="#263238" stroke-linecap="round" stroke-linejoin="round" d="M166.704 220.56a3.93 3.93 0 00-.32 4.3 4.17 4.17 0 002.21 2.34v-.52a10.39 10.39 0 00-1.89-6.12zM166.684 220.52a6.69 6.69 0 00-5.35-2.95c-4 0-7.28 4.08-7.28 9.11a32.65 32.65 0 0011.76-5.49c.29-.21.58-.44.87-.67z"/><path stroke="#263238" fill="#fff" stroke-linecap="round" stroke-linejoin="round" d="M144.594 255.09s-3.69-.92-5.23.31a7.82 7.82 0 00-2.15 3.69h5.84l2.46-.92s.31 1.53 2.16.3-3.08-3.38-3.08-3.38z"/><path fill="#263238" d="M161.454 326.22v-26.9h3.79v-5.49h-9.79v5.49h3.8v26.54l-18.37 4.78v1.4h1.99l16.38-3.08v3.08h2.2v-2.82l14.97 2.82h2v-1.4l-16.97-4.42z"/><rect stroke="#263238" fill="#b5b5b5" stroke-linecap="round" stroke-linejoin="round" rx="2.4" height="7.59" width="35.35" y="287.341" x="141.864"/><path stroke="#263238" fill="#263238" stroke-linecap="round" stroke-linejoin="round" d="M152.114 269.35s-3.31 8.25-6 8.67c-12 1.91-15.47 7.12-15.47 7.12a5.48 5.48 0 00.32 3.79c1 1.57 12.31 35.68 12.31 35.68l-6.31 7.57h2.52s5.06-.94 6-2.52 2.21-2.84 2.53-4.11.95-1.58-.32-2.84a6.09 6.09 0 00-2.52-1.58l-3.31-31.39 12.15 33.6s4.79 7.6 5.24 8.7 4.23-.49 2-4.59a17.41 17.41 0 00-4.42-5.69l-5.37-33.15 18.95-1.26a4.54 4.54 0 002.84-4.42c0-3.48-4.42-13.9-4.42-13.9l-16.72.32z"/><path stroke="#263238" fill="#fff" stroke-linecap="round" stroke-linejoin="round" d="M169.814 267.42l-14.15 8.61-5.84.93-3.07 2.46s6.76.86 8.61.24a7.46 7.46 0 002.76-1.53l15.69-5.54s3.07-2.77 2.77-4.31-6.77-1.81-6.77-.86zM130.964 288.93c1 1.57 11.55 32.39 11.55 32.39l-2 7.83-3.52 3h2.52s5.06-.94 6-2.52 2.21-2.84 2.53-4.11.95-1.58-.32-2.84a6.09 6.09 0 00-2.52-1.58l-3.31-31.39 12.15 33.6s4.79 7.6 5.24 8.7 4.23-.49 2-4.59a17.41 17.41 0 00-4.42-5.69l-5.37-33.15.77-.05s-.79-3.16-1.71-3.42c-14.33-4.07-19.9 0-19.9 0a5.48 5.48 0 00.31 3.82zM141.864 289.74s-2.41-4.86-2.22-5.81"/><path stroke="#263238" fill="#263238" stroke-linecap="round" stroke-linejoin="round" d="M231.044 274.31l-24 7.07a2 2 0 00-1.18 2.91l19.42 40.5-8.11 7.63 8.72-1.86 7.83-3.19-1.16-4.95-14.11-34.06a1.21 1.21 0 011.14-1.64h29.64s6-5.59.2-13.18l-18.39.77z"/><path stroke="#263238" fill="#fff" stroke-linecap="round" stroke-linejoin="round" stroke-width=".75" d="M231.234 242.72l-15.72 9.24-4.07 4.21 2.55 1.86 15.87-2.24 1.37-13.07z"/><path stroke="#263238" fill="#fff" stroke-linecap="round" stroke-linejoin="round" stroke-width=".75" d="M218.074 241.87s-8.26 11.48-8.28 12.56 2 2.77 3.3 3.48 3.78-1.19 3.78-1.19l3.87-13.24-2.67-1.61z"/><path stroke="#263238" fill="#fff" stroke-linecap="round" stroke-linejoin="round" d="M228.694 243.75l-1.14 26.93a3.47 3.47 0 00.91 2.48h0a3.47 3.47 0 002.58 1.15h16.56a3.49 3.49 0 003.18-2.08l.21-.45a3.53 3.53 0 00.21-2.2c-1.29-5.52-6.89-26.73-8.13-29-1.4-2.6-6.19-4.4-6.19-4.4l-8.19 7.57z"/><path stroke="#263238" fill="#fff" stroke-linecap="round" stroke-linejoin="round" stroke-width=".75" d="M224.014 237.39l.19-2.26-1.65-.38-.77 1.44-2.55.66-1.22 5.42 2.82 1.35 4.4-4.73-1.22-1.5z"/><path stroke="#263238" fill="#fff" stroke-linecap="round" stroke-linejoin="round" stroke-width=".75" d="M224.014 237.42l-3.59-.26-.2 1 2 .55s-1.54 1.05-1.69 1.64"/><path stroke="#263238" fill="#fff" stroke-linecap="round" stroke-linejoin="round" d="M224.534 235.56l3.19 1.42 2.31 5 6.39-6.21-1.77-4.08s2.3-3.37 1.77-6.39-6.21-6.22-9.23-3.38-2.66 13.64-2.66 13.64z"/><path stroke="#263238" fill="#263238" stroke-linecap="round" stroke-linejoin="round" d="M223.824 221.36s-1.42-1.77-1.42-3 2.84-2.66 4.26-2.66 7.63.36 9.76 2.31a9.24 9.24 0 012.49 8.52c-.71 3-2.84 5.68-5 5.86s-3.55-2.31-3.91-3.2a51.72 51.72 0 00-3.91-6.39 4.92 4.92 0 00-2.27-1.44z"/><path stroke="#263238" fill="#fff" stroke-linecap="round" stroke-linejoin="round" d="M224.174 220.12l-1.6 4.79v1.25l-2.34 2.26 1.77 2.13-.18 4.62 4 .29a4.44 4.44 0 004.46-2.82l.94-2.44a2.55 2.55 0 001.6-2.49c0-2 .18-2.66-.89-2.66a10.06 10.06 0 00-2.3.35l-1.07-.53.18-1.77-1.6-1.25-.18-1.77-2.79.04zM235.884 233.17l-9.38 9.18 1.79 5 9.99-11.19-2.4-2.99z"/><path stroke="#263238" fill="#fff" stroke-linecap="round" stroke-linejoin="round" d="M235.884 241.16l-7.58 15.17-18.78.4s-7.39-1.6-8.58-1.8-4.6 3.8-4.6 3.8h12l23.36 5.39 12-15.38"/><path stroke="#263238" fill="#fff" stroke-linecap="round" stroke-linejoin="round" d="M209.504 259l.43-2.28h-.41s-7.39-1.6-8.58-1.8-4.6 3.8-4.6 3.8h12l1.16.28z"/><path fill="#263238" d="M239.884 324.97v-26.9h3.79v-3.59h-9.78v3.59h3.79v26.53l-18.37 4.79v1.4h2l16.37-3.09v3.09h2.2v-2.82l14.98 2.82h1.99v-1.4l-16.97-4.42z"/><path stroke="#263238" fill="none" stroke-linecap="round" stroke-linejoin="round" stroke-width="2" d="M229.294 294.67h29.16l2.82-4.64a12.91 12.91 0 00.94-11.55l-1.76-4.37"/><rect stroke="#263238" fill="#b5b5b5" stroke-linecap="round" stroke-linejoin="round" rx="2.4" height="7.59" width="35.35" y="286.091" x="218.714"/><rect stroke="#263238" fill="#b5b5b5" stroke-linecap="round" stroke-linejoin="round" transform="rotate(7.39 35.354 -32.72)" rx="1.6" height="25.36" width="6.39" y="226.391" x="291.784"/><path stroke="#263238" fill="#fff" stroke-linecap="round" stroke-linejoin="round" stroke-width=".75" d="M193.094 258.76h-8.72l-4.72-13.63h8.71l4.73 13.63z"/><path stroke="#263238" fill="#fff" stroke-linecap="round" stroke-linejoin="round" stroke-width=".75" d="M184.374 257.421h22.13v1.34h-22.13z"/><path stroke="#263238" fill="#fff" stroke-linecap="round" stroke-linejoin="round" stroke-width=".75" d="M196.654 257.421h9.85v1.34h-9.85zM119.984 245.031h23.11v12.34h-23.11zM119.984 257.541h36.48v1.22h-36.48z"/><path stroke="#263238" fill="#fff" stroke-linecap="round" stroke-linejoin="round" stroke-width=".75" d="M142.914 257.541h13.55v1.22h-13.55z"/><path stroke="#263238" fill="#fff" stroke-linecap="round" stroke-linejoin="round" d="M214.614 332.37h2.24l1.12-66.23h-4.48l1.12 66.23zM111.104 332.37h2.24l1.11-66.23h-4.47l1.12 66.23z"/><path stroke="#263238" fill="#fff" stroke-linecap="round" stroke-linejoin="round" d="M107.084 260.331h113.8v7.38h-113.8z"/><path stroke="#263238" fill="#263238" stroke-linecap="round" stroke-linejoin="round" d="M104.844 258.521h117.99v2.71h-117.99z"/><path stroke="#263238" fill="#fff" stroke-linecap="round" stroke-linejoin="round" d="M83.564 208.9l-12.14 5.06 6.07 33.66h24.55l2.02-32.14-10.98-6.47-9.52-.11z"/><path stroke="#263238" fill="#177DDC" stroke-linecap="round" stroke-linejoin="round" d="M86.254 215.91l2.21 4.11-2.84 16.75 3.16 6.33 5.69-7.59-4.11-15.49 1.58-3.79-3.16-4.74-2.53 4.42z"/><path stroke="#263238" fill="#fff" stroke-linecap="round" stroke-linejoin="round" d="M85.834 206.61s-1.81.2-2.22 1.21.21 10.7.21 10.7l5.24-3 5 3s-.61-6.46-2-9.49-6.23-2.42-6.23-2.42z"/><path stroke="#263238" fill="#fff" stroke-linecap="round" stroke-linejoin="round" d="M85.084 204.34s-.25 2.53-.25 4.05 3.29 8.1 4.3 7.59 3.54-4.56 3.54-4.56l1.27-1.52 2.53-2.28s-5.91-6.67-7.59-7.08-3.8 3.8-3.8 3.8z"/><path stroke="#263238" fill="#263238" stroke-linecap="round" stroke-linejoin="round" d="M96.234 193.75s1.42-1.78 1.42-3-2.84-2.66-4.26-2.66-7.63.35-9.76 2.31a9.22 9.22 0 00-2.49 8.52c.71 3 2.84 5.68 5 5.86s3.55-2.31 3.91-3.2a50.15 50.15 0 013.9-6.39 4.88 4.88 0 012.28-1.44z"/><path stroke="#263238" fill="#fff" stroke-linecap="round" stroke-linejoin="round" d="M95.894 192.51l1.6 4.79v1.24l2.31 2.31-1.78 2.13.18 4.62-4 .29a4.43 4.43 0 01-4.46-2.82l-1-2.44a2.56 2.56 0 01-1.51-2.49c0-1.95-.18-2.66.88-2.66a10.08 10.08 0 012.31.35l1.07-.53-.18-1.78 1.6-1.24.17-1.77h2.81z"/><path stroke="#263238" fill="#263238" stroke-linecap="round" stroke-linejoin="round" d="M77.494 247.62l-4.55 75.66h4.81l11.38-57.7h2.28l10.37 57.7 4.81-.26-4.55-75.4h-24.55z"/><path stroke="#263238" fill="#fff" stroke-linecap="round" stroke-linejoin="round" d="M71.424 213.96l-5.4 19-12.68-9.54-2.46 3.38 16.37 16 8-8.31s-2.73-15.57-3.83-20.53zM102.234 213.94l-10.74 19.73-18.36 9 .86 3.15 24.32-4.83 7.69-12.57s3.23-13.54-3.77-14.48z"/><path stroke="#263238" fill="#fff" stroke-linecap="round" stroke-linejoin="round" d="M53.344 223.42l-1.53-4-4-1.84-1.54.61 1.84 1.23-3.69-1.23-2.15-2.15-1.54.3 2.77 6.16 7.38 4.3 2.46-3.38zM73.134 242.67l-4.91-1.56-3.75 2.31-.33 1.62 2.04-.86-3.06 2.4-2.99.61-.59 1.45 6.66 1.09 7.66-3.78-.73-3.28z"/><path stroke="#263238" fill="#263238" stroke-linecap="round" stroke-linejoin="round" d="M72.944 323.28l-3.38 4.75-4.86 4.34h13.04l.01-9.09h-4.81zM106.594 323.02l3.38 5.01 4.86 4.34h-13.04l-.01-9.09 4.81-.26zM36.384 189.301h4.54v86.9h-4.54z"/><path stroke="#263238" fill="#fff" stroke-linecap="round" stroke-linejoin="round" d="M39.814 189.301h4.54v86.9h-4.54z"/><path stroke="#263238" fill="#263238" stroke-linecap="round" stroke-linejoin="round" d="M33.754 276.201h12.57v3.43h-12.57zM36.424 238.1l-19.81 93.73h3.8l18.29-88.4-2.28-5.33z"/><path stroke="#263238" fill="#263238" stroke-linecap="round" stroke-linejoin="round" d="M40.044 277.91l10.47 53.15h3.82l-10.67-52.96-3.62-.19z"/></g><g stroke="null" transform="matrix(1.26856 0 0 1.26856 -15.52 -13.88)"><path stroke="#263238" fill="#fff" stroke-linecap="round" stroke-linejoin="round" d="M142.004 386.45l-4.54 2.67v22.7h15.89v-23.1l-5.21-2.13-6.14-.14z"/><path stroke="#263238" fill="#177DDC" stroke-linecap="round" stroke-linejoin="round" d="M140.804 387.42v24.7h-18.29l5.07-18.83s12.15-6.17 13.22-5.87z"/><path stroke="#263238" fill="#fff" stroke-linecap="round" stroke-linejoin="round" d="M131.984 411.951v-10.95"/><path stroke="#263238" fill="#177DDC" stroke-linecap="round" stroke-linejoin="round" d="M150.414 387.42v24.7h18.29l-5.08-18.83s-12.14-6.17-13.21-5.87z"/><path stroke="#263238" fill="#fff" stroke-linecap="round" stroke-linejoin="round" d="M159.224 411.951v-10.95M143.234 384.05s-2.14.27-2.67 1.6-2.54 12.42-2.54 12.42l5.08-2.54 2.4 1.6 2.94-1.87 4.93 4.28s-1.2-12.69-3.6-15.22-6.54-.27-6.54-.27z"/><path stroke="#263238" fill="#fff" stroke-linecap="round" stroke-linejoin="round" d="M142.664 383.52a98.66 98.66 0 00.67 9.88c.54 3.2 2.14 4.13 3.07 3.2s1.34-3.47 1.34-3.47l1.33-9.48-6.41-.13z"/><circle stroke="#263238" fill="#263238" stroke-linecap="round" stroke-linejoin="round" r="6.41" cy="363.761" cx="146.004"/><path stroke="#263238" fill="#fff" stroke-linecap="round" stroke-linejoin="round" d="M138.394 373.1s-2.4-2.27-2.8 1.07 3.34 4 3.34 4l-.54-5.07zM153.554 373.1s2.41-2.27 2.81 1.07-3.34 4-3.34 4l.53-5.07z"/><path stroke="#263238" fill="#fff" stroke-linecap="round" stroke-linejoin="round" d="M154.234 372.67c0 5.61-3.64 12.65-8.13 12.65s-8.14-7-8.14-12.65 3.64-10.17 8.14-10.17 8.13 4.55 8.13 10.17z"/><path stroke="#263238" fill="#263238" stroke-linecap="round" stroke-linejoin="round" d="M152.144 365.83a4.38 4.38 0 00-.36 4.8 4.76 4.76 0 002.46 2.63v-.59a11.62 11.62 0 00-2.1-6.84zM152.124 365.8a7.51 7.51 0 00-6-3.3c-4.5 0-8.14 4.55-8.14 10.17a36.4 36.4 0 0013.15-6.13l.99-.74zM82.374 383.511h34.22v23.64h-34.22z"/><path stroke="#263238" fill="#474747" stroke-linecap="round" stroke-linejoin="round" d="M86.654 389.811h24.31v17.33h-24.31z"/><path stroke="#263238" fill="#b5b5b5" stroke-linecap="round" stroke-linejoin="round" d="M96.334 400.621h4.73v11.93h-4.73z"/><path stroke="#263238" fill="#177DDC" stroke-linecap="round" stroke-linejoin="round" d="M73.294 413.701h129.9v68.2h-129.9z"/><path stroke="#263238" fill="#fff" stroke-linecap="round" stroke-linejoin="round" d="M162.234 404.481h34.94v8.51h-34.94z"/><path stroke="#263238" fill="#263238" stroke-linecap="round" stroke-linejoin="round" d="M71.674 412.001h134.55v3.26H71.674z"/><rect fill="#263238" rx="5.13" height="29.01" width="29.01" y="430.231" x="124.444"/><rect fill="#fff" transform="rotate(-45 -276.146 228.64)" rx="4.93" height="29.01" width="29.01" y="660.451" x="-149.936"/><circle fill="#263238" r="9.16" cy="444.731" cx="138.944"/></g><g stroke="#263238" stroke-linecap="round" stroke-linejoin="round"><path fill="#7d7d7d" d="M306.712 502.68h162.376a4.136 4.136 0 014.085 4.084v90.639h0-170.596 0v-90.639a4.123 4.123 0 014.135-4.085z" stroke-width="1.26856"/><path fill="#7d7d7d" d="M306.712 549.768h162.376a4.136 4.136 0 014.135 4.136v43.55h0-170.646 0v-43.55a4.123 4.123 0 014.135-4.136z" stroke-width="1.26856"/><path fill="none" d="M302.247 562.124h170.925" stroke-width="1.26856"/><path fill="#7d7d7d" d="M293.684 538.478h19.46a4.136 4.136 0 014.135 4.136v54.903h0-27.73 0V542.55a4.123 4.123 0 014.135-4.072zM463.443 538.478h19.46a4.123 4.123 0 014.122 4.123v54.903h0-27.705 0V542.55a4.123 4.123 0 014.123-4.072zM506.08 506.523s-6.014 4.174-6.014 21.566v37.029h13.028v-60.092l-7.015 1.497z" stroke-width="1.26856"/><path fill="#7d7d7d" d="M510.202 502.68h14.119a4.136 4.136 0 014.136 4.135v90.639h0-22.378 0v-90.69a4.123 4.123 0 014.123-4.085z" stroke-width="1.26856"/><path fill="#7d7d7d" d="M450.085 538.478h74.236a4.136 4.136 0 014.136 4.136v54.903h0H446h0V542.55a4.123 4.123 0 014.085-4.072z" stroke-width="1.26856"/></g><g stroke="null"><path fill="#177DDC" d="M325.588 211.342h9.324V412.51h-9.324z" stroke-width="1.26856"/><path fill="#177DDC" d="M0 406.776h607.64v11.417H0z" stroke-width="1.26856"/><path stroke="#263238" fill="none" stroke-linecap="round" stroke-linejoin="round" d="M.837 597.454h606.587" stroke-width="1.26856"/><path fill="#177DDC" d="M0 201.27h607.64v11.417H0z" stroke-width="1.26856"/></g><path fill="#177DDC" d="M132.76 522.997h58v56h-58z"/><g stroke="null"><path fill="#343434" d="M160.756 534.557l-.295 1.002v29.07l.295.294 13.494-7.976z" stroke-width=".03442"/><path fill="#8C8C8C" d="M160.756 534.557l-13.494 22.39 13.494 7.976v-14.11z" stroke-width=".03442"/><path fill="#3C3C3B" d="M160.756 567.478l-.166.203v10.355l.166.486 13.502-19.016z" stroke-width=".03442"/><path fill="#8C8C8C" d="M160.756 578.522v-11.044l-13.494-7.972z" stroke-width=".03442"/><path fill="#141414" d="M160.756 564.923l13.494-7.976-13.494-6.133z" stroke-width=".03442"/><path fill="#393939" d="M147.262 556.947l13.494 7.976v-14.11z" stroke-width=".03442"/></g><g stroke="null"><path fill="#343434" d="M507.758 25.557l-.164.557v16.148l.164.163 7.496-4.43z" stroke-width=".01912"/><path fill="#8C8C8C" d="M507.758 25.557l-7.496 12.438 7.496 4.43v-7.838z" stroke-width=".01912"/><path fill="#3C3C3B" d="M507.758 43.845l-.093.112v5.753l.093.27 7.5-10.564z" stroke-width=".01912"/><path fill="#8C8C8C" d="M507.758 49.98v-6.135l-7.496-4.429z" stroke-width=".01912"/><path fill="#141414" d="M507.758 42.425l7.496-4.43-7.496-3.408z" stroke-width=".01912"/><path fill="#393939" d="M500.262 37.995l7.496 4.43v-7.838z" stroke-width=".01912"/></g></g></svg>